<?xml version="1.0" encoding="utf-8"?>
<!-- Generator: Adobe Illustrator 23.0.1, SVG Export Plug-In . SVG Version: 6.00 Build 0)  -->
<svg version="1.1" id="Layer_1" xmlns="http://www.w3.org/2000/svg" xmlns:xlink="http://www.w3.org/1999/xlink" x="0px" y="0px"
	 viewBox="0 0 500 116.2" style="enable-background:new 0 0 500 116.2;" xml:space="preserve">
<style type="text/css">
	.st0{fill:#FFFFFF;}
</style>
<g>
	<path class="st0" d="M66.14,59.2c0,17.43,0,34.85,0,52.28c0,3.29-0.01,3.3-3.37,3.31c-7.1,0.01-14.2-0.05-21.3,0.03
		c-2.07,0.02-2.99-0.44-2.98-2.81c0.07-35.26,0.07-70.51,0.01-105.77c0-2.17,0.74-2.77,2.8-2.74c7.34,0.09,14.68,0.11,22.02-0.01
		c2.26-0.04,2.87,0.76,2.86,2.94C66.1,24.02,66.14,41.61,66.14,59.2z"/>
	<path class="st0" d="M2.44,70.82c0-13.56,0.06-27.13-0.05-40.69c-0.02-2.43,0.63-3.19,3.11-3.14c7.34,0.16,14.69,0.12,22.04,0.02
		c2.04-0.03,2.62,0.68,2.61,2.65c-0.05,27.45-0.05,54.9,0,82.35c0,2.08-0.62,2.85-2.76,2.82c-7.43-0.1-14.86-0.1-22.28,0
		c-2.18,0.03-2.72-0.78-2.71-2.84C2.48,98.27,2.44,84.54,2.44,70.82z"/>
	<path class="st0" d="M73.65,81.13c0-10.17,0.05-20.33-0.04-30.5c-0.02-2.16,0.54-2.96,2.83-2.92c7.42,0.13,14.85,0.1,22.27,0.01
		c1.91-0.02,2.72,0.44,2.72,2.53c-0.06,20.65-0.06,41.31,0,61.97c0.01,2.05-0.78,2.62-2.71,2.6c-7.42-0.08-14.85-0.1-22.27,0.01
		c-2.27,0.03-2.86-0.79-2.84-2.96C73.71,101.62,73.65,91.37,73.65,81.13z"/>
	<path class="st0" d="M465.99,114.69c-4.92,0.14-9.43-0.76-13.24-3.95c-1.77-1.48-2.94-3.39-3.88-5.48
		c-0.53-1.17-0.35-1.82,0.99-2.02c2.23-0.33,4.46-0.67,6.69-1.04c1.04-0.17,1.54,0.26,2.02,1.2c2.23,4.36,8.38,5.9,12.5,3.22
		c1.11-0.72,1.69-1.68,1.61-3.03c-0.09-1.46-1.08-2.11-2.29-2.48c-4.25-1.27-8.65-1.98-12.82-3.54c-5.34-2-7.99-5.32-7.91-10.05
		c0.08-4.82,3.21-8.78,8.45-10.25c5.08-1.43,10.24-1.29,15.29,0.23c3.53,1.06,5.9,3.5,7.37,6.87c0.51,1.15,0.36,1.81-0.98,2.05
		c-1.59,0.28-3.17,0.61-4.74,0.95c-1.68,0.35-2.87,0.23-3.98-1.56c-1.76-2.84-8.77-3.37-11.33-1.18c-1.44,1.23-1.21,2.95,0.63,3.88
		c2.03,1.03,4.29,1.39,6.47,1.97c2.65,0.7,5.33,1.32,7.92,2.21c5.32,1.82,7.62,4.68,7.76,9.31c0.15,4.9-2.7,9.16-7.4,11.16
		C472.15,114.39,469.06,114.82,465.99,114.69z"/>
	<path class="st0" d="M300.74,99.37c0-3.95-0.08-7.91,0.03-11.85c0.06-2.01-0.68-2.87-2.65-2.59c-2.32,0.33-3.04-0.78-2.76-2.91
		c0.07-0.56,0.08-1.14,0-1.69c-0.37-2.44,0.62-3.46,3.07-3.14c1.82,0.24,2.49-0.7,2.33-2.42c-0.04-0.48,0.01-0.97,0.03-1.45
		c0.26-7.36,2.88-10.18,10.18-10.82c2.59-0.23,5.13,0.17,7.67,0.74c1.28,0.29,1.56,0.95,1.26,2.08c-0.06,0.23-0.12,0.47-0.17,0.71
		c-0.78,3.91-0.78,3.91-4.7,3.89c-3.52-0.02-5.58,2.85-4.51,6.23c0.38,1.19,1.32,1,2.16,1.04c5.23,0.27,5.17,0.27,5.07,5.54
		c-0.03,1.71-0.66,2.19-2.29,2.23c-5.02,0.1-5.02,0.16-5.02,5.25c0,7.1-0.04,14.19,0.03,21.29c0.02,1.83-0.5,2.7-2.46,2.53
		c-1.6-0.13-3.23-0.14-4.83,0c-2,0.17-2.48-0.76-2.44-2.56C300.8,107.43,300.74,103.4,300.74,99.37
		C300.74,99.37,300.74,99.37,300.74,99.37z"/>
	<path class="st0" d="M221.12,88.83c0,7.18,0,14.36,0,21.54c0,3.62-0.01,3.62-3.74,3.62c-1.29,0-2.59-0.08-3.87,0.02
		c-1.7,0.13-2.27-0.58-2.24-2.24c0.07-4.84,0.02-9.68,0.02-14.52c0-10.41,0.06-20.82-0.04-31.23c-0.02-2.24,0.73-2.88,2.92-2.87
		c6.96,0.05,6.96-0.03,6.96,7.04C221.12,76.41,221.12,82.62,221.12,88.83z"/>
	<path class="st0" d="M429.2,88.77c0,7.58-0.05,15.15,0.03,22.73c0.02,1.85-0.51,2.71-2.44,2.51c-2.38-0.25-5.4,1.01-6.99-0.59
		c-1.37-1.38-0.39-4.32-0.4-6.56c-0.03-13.54,0.05-27.08-0.08-40.62c-0.02-2.52,0.79-3.12,3.16-3.08c6.71,0.1,6.72,0.01,6.72,6.75
		C429.2,76.19,429.2,82.48,429.2,88.77z"/>
	<path class="st0" d="M227.49,88.75c0-7.65,0.06-15.31-0.04-22.96c-0.03-2.02,0.65-2.61,2.63-2.62c7.22-0.04,7.21-0.1,7.21,7.2
		c0,13.54-0.07,27.07,0.06,40.61c0.02,2.53-0.79,3.11-3.16,3.07c-6.71-0.11-6.71-0.02-6.71-6.69
		C227.49,101.16,227.49,94.95,227.49,88.75z"/>
	<path class="st0" d="M435.48,113.62c-0.01-15.96,0-31.93-0.06-47.89c-0.01-1.83,0.45-2.68,2.42-2.55c2.41,0.16,4.83,0.1,7.25,0.14
		c0.21,0.21,0.31,0.47,0.32,0.76c-0.19,15.32-0.01,30.64-0.06,45.96c0,0.4-0.04,0.8,0,1.2c0.18,1.9-0.49,2.69-2.58,2.43
		c-1.39-0.18-2.9-0.15-4.31,0.03"/>
	<path class="st0" d="M492.4,114.02c-5.59-0.08-4.88,0.74-4.88-4.87c0-5.92-0.7-5.02,4.93-5.03c5.47-0.01,4.93-0.79,4.91,4.84
		C497.36,114.8,498.04,113.93,492.4,114.02z"/>
	<path class="st0" d="M166.63,77.5c-0.59-8.18-5.8-13.7-14-14.08c-3.7-0.17-7.42-0.03-11.13-0.03c0-0.05,0-0.11,0-0.16
		c-3.87,0-7.74,0.04-11.61-0.02c-1.52-0.02-2.18,0.49-2.18,2.08c0.03,15.56,0.03,31.13,0,46.69c0,1.43,0.5,2.06,1.96,2.02
		c2.09-0.06,4.2-0.07,6.29,0.01c1.54,0.06,2.13-0.48,2.1-2.09c-0.08-4.92,0.04-9.84-0.06-14.76c-0.03-1.77,0.47-2.4,2.32-2.37
		c3.95,0.06,7.89-0.03,11.84-0.24C160.19,94.15,167.38,87.94,166.63,77.5z M150.17,85.73c-3.51,0.69-7.06,0.34-10.59,0.43
		c-1.17,0.03-1.54-0.57-1.53-1.64c0.03-1.85,0.01-3.7,0.01-5.55c0-1.77,0.03-3.54-0.01-5.31c-0.03-1.21,0.45-1.79,1.69-1.77
		c3.38,0.07,6.77-0.07,10.13,0.23c3.66,0.32,6.04,2.97,6.16,6.3C156.16,82.38,154.1,84.96,150.17,85.73z"/>
	<path class="st0" d="M359.86,63.37c-3.39-0.1-6.78-0.02-10.16-0.02c0-0.04,0-0.09,0-0.13c-3.87,0-7.75,0.06-11.62-0.03
		c-1.7-0.04-2.3,0.6-2.23,2.25c0.09,2.09,0.02,4.19,0.02,6.29c0,13.23,0.04,26.46-0.04,39.7c-0.01,2.02,0.61,2.75,2.62,2.59
		c1.76-0.14,3.55-0.13,5.32,0c1.81,0.13,2.39-0.57,2.36-2.36c-0.09-4.76,0.05-9.52-0.06-14.28c-0.05-2.04,0.7-2.62,2.67-2.59
		c4.03,0.06,8.06,0.16,12.09-0.34c8.53-1.06,13.54-6.38,13.92-14.89C375.17,70,369.37,63.65,359.86,63.37z M357.99,85.78
		c-3.36,0.57-6.75,0.33-10.13,0.39c-1.24,0.02-1.75-0.54-1.74-1.74c0.02-1.77,0.01-3.55,0.01-5.32c-0.01,0-0.02,0-0.03,0
		c0-0.73-0.01-1.45,0-2.18c0.1-5.59-0.76-5,5.02-5.08c2.17-0.03,4.36,0.02,6.52,0.22c3.81,0.35,6.45,3.1,6.49,6.56
		C364.18,82.42,361.84,85.13,357.99,85.78z"/>
	<path class="st0" d="M276.35,76.39c-10.78-0.07-18.71,7.91-18.74,18.86c-0.03,11.76,7.22,19.41,18.46,19.49
		c11.29,0.08,19.31-7.81,19.35-19.04C295.47,84.36,287.68,76.47,276.35,76.39z M284.03,102.23c-1.48,3.07-4.21,4.63-7.67,4.58
		c-3.47-0.05-5.94-1.81-7.52-4.84c-1.03-1.98-1.24-4.15-1.22-5.63c0.01-3.5,0.33-6.2,2.09-8.51c3.95-5.17,11.54-4.54,14.39,1.3
		C286.2,93.44,286.1,97.95,284.03,102.23z"/>
	<path class="st0" d="M187.92,76.38c-10.87,0.07-18.69,8.06-18.59,19c0.1,11.97,7.33,19.39,18.84,19.34
		c11.24-0.05,19.17-8.24,19.02-19.66C207.05,84.18,198.92,76.31,187.92,76.38z M196.76,99.3c-1.01,4.55-4.05,7.35-8.24,7.49
		c-4.24,0.14-7.43-2.41-8.72-6.9c-0.41-1.42-0.45-2.86-0.5-4.31c0.03-2.95,0.43-5.8,2.44-8.16c2.25-2.63,5.13-3.66,8.46-2.85
		c3.42,0.84,5.52,3.22,6.41,6.59C197.33,93.85,197.37,96.56,196.76,99.3z"/>
	<path class="st0" d="M395.96,76.38c-10.86,0.09-18.66,8.07-18.59,19.02c0.08,11.88,7.42,19.39,18.89,19.31
		c11.24-0.07,18.97-8.02,18.92-19.44C415.12,84.17,407.11,76.29,395.96,76.38z M403.84,102.14c-1.47,3.11-4.14,4.69-7.61,4.64
		c-3.68-0.05-6.26-1.9-7.78-5.19c-0.86-1.86-1.18-3.85-1.09-5.38c-0.01-3.57,0.43-6.48,2.52-8.89c4.02-4.64,11.26-3.81,13.95,1.72
		C405.94,93.35,405.87,97.82,403.84,102.14z"/>
</g>
</svg>
